<svg width="766" height="239" viewBox="0 0 766 239" fill="none" xmlns="http://www.w3.org/2000/svg">
<ellipse cx="108" cy="131.5" rx="108" ry="107.5" fill="#ED5F5E"/>
<path d="M156.387 201.598C156.07 203.3 155.441 204.819 154.501 206.153C153.621 207.5 152.532 208.618 151.234 209.509C150.007 210.35 148.608 210.939 147.036 211.275C145.463 211.611 143.856 211.627 142.214 211.321C140.755 211.049 139.316 210.498 137.898 209.668C136.541 208.849 135.398 207.724 134.469 206.293L64.6676 99.6849L47.5171 191.803L23.8035 187.388L46.2689 66.7223C46.7217 64.2902 47.7981 62.2258 49.498 60.5291C51.2701 58.7829 53.3108 57.6215 55.62 57.0449C58.0396 56.5516 60.3898 56.769 62.6706 57.6969C64.9627 58.5641 66.7959 60.0378 68.1701 62.1181L137.988 168.635L155.139 76.5168L178.852 80.9317L156.387 201.598Z" fill="white"/>
<path d="M242.32 188C240.48 188 238.88 187.32 237.52 185.96C236.16 184.6 235.48 183 235.48 181.16V107.24C235.48 105.4 236.16 103.8 237.52 102.44C238.88 101.08 240.48 100.4 242.32 100.4H245.32C247.4 100.4 249.32 100.96 251.08 102.08C252.84 103.2 254.12 104.68 254.92 106.52L275.92 151.88C275.92 151.96 275.96 152 276.04 152C276.12 152 276.16 151.96 276.16 151.88L297.16 106.52C297.96 104.68 299.24 103.2 301 102.08C302.76 100.96 304.68 100.4 306.76 100.4H310.24C312.08 100.4 313.68 101.08 315.04 102.44C316.4 103.8 317.08 105.4 317.08 107.24V181.16C317.08 183 316.4 184.6 315.04 185.96C313.68 187.32 312.08 188 310.24 188H307.6C305.76 188 304.16 187.32 302.8 185.96C301.44 184.6 300.76 183 300.76 181.16V128.96C300.76 128.88 300.72 128.84 300.64 128.84C300.56 128.84 300.52 128.88 300.52 128.96L286.12 159.8C285.24 161.64 283.88 163.16 282.04 164.36C280.28 165.48 278.4 166.04 276.4 166.04H275.68C273.68 166.04 271.76 165.48 269.92 164.36C268.16 163.16 266.84 161.64 265.96 159.8L251.56 128.96C251.56 128.88 251.52 128.84 251.44 128.84C251.36 128.84 251.32 128.88 251.32 128.96V181.16C251.32 183 250.64 184.6 249.28 185.96C247.92 187.32 246.32 188 244.48 188H242.32ZM342.867 188C341.027 188 339.427 187.32 338.067 185.96C336.707 184.6 336.027 183 336.027 181.16V107.24C336.027 105.4 336.707 103.8 338.067 102.44C339.427 101.08 341.027 100.4 342.867 100.4H383.667C385.507 100.4 387.107 101.08 388.467 102.44C389.827 103.8 390.507 105.4 390.507 107.24C390.507 109.08 389.827 110.68 388.467 112.04C387.107 113.32 385.507 113.96 383.667 113.96H353.907C353.187 113.96 352.827 114.32 352.827 115.04V134.36C352.827 135.08 353.187 135.44 353.907 135.44H381.627C383.467 135.44 384.987 136.08 386.187 137.36C387.467 138.64 388.107 140.16 388.107 141.92C388.107 143.68 387.467 145.2 386.187 146.48C384.987 147.68 383.467 148.28 381.627 148.28H353.907C353.187 148.28 352.827 148.64 352.827 149.36V173.36C352.827 174.08 353.187 174.44 353.907 174.44H383.667C385.507 174.44 387.107 175.12 388.467 176.48C389.827 177.76 390.507 179.32 390.507 181.16C390.507 183 389.827 184.6 388.467 185.96C387.107 187.32 385.507 188 383.667 188H342.867ZM414.934 188C413.094 188 411.494 187.32 410.134 185.96C408.854 184.6 408.214 183 408.214 181.16V107.24C408.214 105.4 408.854 103.8 410.134 102.44C411.494 101.08 413.094 100.4 414.934 100.4H418.174C420.014 100.4 421.614 101.08 422.974 102.44C424.334 103.8 425.014 105.4 425.014 107.24V134.48C425.014 135.12 425.334 135.44 425.974 135.44H455.974C456.614 135.44 456.934 135.12 456.934 134.48V107.24C456.934 105.4 457.614 103.8 458.974 102.44C460.334 101.08 461.934 100.4 463.774 100.4H467.014C468.854 100.4 470.414 101.08 471.694 102.44C473.054 103.8 473.734 105.4 473.734 107.24V181.16C473.734 183 473.054 184.6 471.694 185.96C470.414 187.32 468.854 188 467.014 188H463.774C461.934 188 460.334 187.32 458.974 185.96C457.614 184.6 456.934 183 456.934 181.16V149.36C456.934 148.64 456.614 148.28 455.974 148.28H425.974C425.334 148.28 425.014 148.64 425.014 149.36V181.16C425.014 183 424.334 184.6 422.974 185.96C421.614 187.32 420.014 188 418.174 188H414.934ZM499.547 188C497.707 188 496.107 187.32 494.747 185.96C493.387 184.6 492.707 183 492.707 181.16V107.24C492.707 105.4 493.387 103.8 494.747 102.44C496.107 101.08 497.707 100.4 499.547 100.4H540.347C542.187 100.4 543.787 101.08 545.147 102.44C546.507 103.8 547.187 105.4 547.187 107.24C547.187 109.08 546.507 110.68 545.147 112.04C543.787 113.32 542.187 113.96 540.347 113.96H510.587C509.867 113.96 509.507 114.32 509.507 115.04V134.36C509.507 135.08 509.867 135.44 510.587 135.44H538.307C540.147 135.44 541.667 136.08 542.867 137.36C544.147 138.64 544.787 140.16 544.787 141.92C544.787 143.68 544.147 145.2 542.867 146.48C541.667 147.68 540.147 148.28 538.307 148.28H510.587C509.867 148.28 509.507 148.64 509.507 149.36V173.36C509.507 174.08 509.867 174.44 510.587 174.44H540.347C542.187 174.44 543.787 175.12 545.147 176.48C546.507 177.76 547.187 179.32 547.187 181.16C547.187 183 546.507 184.6 545.147 185.96C543.787 187.32 542.187 188 540.347 188H499.547ZM571.614 188C569.774 188 568.174 187.32 566.814 185.96C565.534 184.6 564.894 183 564.894 181.16V107.24C564.894 105.4 565.534 103.8 566.814 102.44C568.174 101.08 569.774 100.4 571.614 100.4H574.254C578.814 100.4 582.174 102.4 584.334 106.4L613.974 159.92C613.974 160 614.014 160.04 614.094 160.04C614.174 160.04 614.214 160 614.214 159.92V107.24C614.214 105.4 614.894 103.8 616.254 102.44C617.614 101.08 619.214 100.4 621.054 100.4H623.694C625.534 100.4 627.094 101.08 628.374 102.44C629.734 103.8 630.414 105.4 630.414 107.24V181.16C630.414 183 629.734 184.6 628.374 185.96C627.094 187.32 625.534 188 623.694 188H621.054C616.494 188 613.134 186 610.974 182L581.334 128.48C581.334 128.4 581.294 128.36 581.214 128.36C581.134 128.36 581.094 128.4 581.094 128.48V181.16C581.094 183 580.414 184.6 579.054 185.96C577.694 187.32 576.094 188 574.254 188H571.614ZM666.066 114.32V174.08C666.066 174.64 666.386 175 667.026 175.16C669.586 175.56 671.986 175.76 674.226 175.76C683.586 175.76 690.466 173.24 694.866 168.2C699.266 163.08 701.466 154.68 701.466 143C701.466 132.52 699.226 124.84 694.746 119.96C690.266 115.08 683.426 112.64 674.226 112.64C671.986 112.64 669.586 112.84 667.026 113.24C666.386 113.4 666.066 113.76 666.066 114.32ZM656.226 188.36C654.226 188.12 652.586 187.28 651.306 185.84C650.026 184.32 649.386 182.56 649.386 180.56V107.84C649.386 105.84 650.026 104.12 651.306 102.68C652.586 101.16 654.226 100.28 656.226 100.04C661.346 99.48 667.066 99.2 673.386 99.2C687.626 99.2 698.506 102.92 706.026 110.36C713.626 117.8 717.426 128.68 717.426 143C717.426 158.36 713.626 169.92 706.026 177.68C698.506 185.36 687.626 189.2 673.386 189.2C667.066 189.2 661.346 188.92 656.226 188.36ZM740.189 188C738.349 188 736.749 187.32 735.389 185.96C734.029 184.6 733.349 183 733.349 181.16V107.24C733.349 105.4 734.029 103.8 735.389 102.44C736.749 101.08 738.349 100.4 740.189 100.4H744.989C746.829 100.4 748.429 101.08 749.789 102.44C751.149 103.8 751.829 105.4 751.829 107.24V181.16C751.829 183 751.149 184.6 749.789 185.96C748.429 187.32 746.829 188 744.989 188H740.189Z" fill="black"/>
</svg>
